<?xml version="1.0" encoding="utf-8"?>
<!-- Generator: Adobe Illustrator 24.3.0, SVG Export Plug-In . SVG Version: 6.00 Build 0)  -->
<svg version="1.1" xmlns="http://www.w3.org/2000/svg" xmlns:xlink="http://www.w3.org/1999/xlink" x="0px" y="0px"
	 viewBox="0 0 32 32" style="enable-background:new 0 0 32 32;" xml:space="preserve">
<style type="text/css">
	.st0{opacity:0;fill-rule:evenodd;clip-rule:evenodd;fill:#FFFFFF;}
	.st1{fill:#FFFFFF;}
</style>
<g id="trans">
	<rect x="0" y="0" class="st0" width="32" height="32"/>
</g>
<g id="Ebene_1">
	<circle cx="16" cy="16" r="16"/>
	<path class="st1" d="M13.072,24.439c7.095,0,10.974-5.878,10.974-10.974c0-0.167-0.003-0.333-0.011-0.499
		c0.753-0.544,1.408-1.224,1.924-1.997c-0.691,0.307-1.435,0.514-2.215,0.607c0.796-0.477,1.408-1.233,1.696-2.134
		c-0.745,0.442-1.571,0.763-2.449,0.936c-0.704-0.75-1.706-1.219-2.815-1.219c-2.13,0-3.858,1.727-3.858,3.857
		c0,0.303,0.034,0.597,0.1,0.879c-3.206-0.161-6.048-1.696-7.95-4.03c-0.332,0.57-0.522,1.232-0.522,1.939
		c0,1.338,0.681,2.52,1.716,3.211c-0.633-0.019-1.227-0.193-1.747-0.483c-0.001,0.016-0.001,0.032-0.001,0.049
		c0,1.868,1.33,3.428,3.094,3.781c-0.324,0.088-0.665,0.136-1.017,0.136c-0.248,0-0.49-0.025-0.725-0.07
		c0.491,1.532,1.915,2.648,3.603,2.679c-1.32,1.035-2.983,1.651-4.791,1.651c-0.311,0-0.618-0.018-0.92-0.053
		C8.867,23.801,10.894,24.439,13.072,24.439"/>
</g>
</svg>
