<?xml version="1.0" encoding="utf-8"?>
<!-- Generator: Adobe Illustrator 24.3.0, SVG Export Plug-In . SVG Version: 6.00 Build 0)  -->
<svg version="1.1" xmlns="http://www.w3.org/2000/svg" xmlns:xlink="http://www.w3.org/1999/xlink" x="0px" y="0px"
	 viewBox="0 0 32 32" style="enable-background:new 0 0 32 32;" xml:space="preserve">
<style type="text/css">
	.st0{opacity:0;fill-rule:evenodd;clip-rule:evenodd;fill:#FFFFFF;}
	.st1{display:none;fill:#FFFFFF;}
	.st2{fill:#170023;stroke:#FFFFFF;stroke-linecap:round;stroke-linejoin:round;}
	.st3{fill:#170023;stroke:#FFFFFF;stroke-miterlimit:10;}
</style>
<g id="trans">
	<rect x="0" y="0" class="st0" width="32" height="32"/>
</g>
<g id="Ebene_1">
	<circle cx="16" cy="16" r="16"/>
	<path class="st1" d="M28.995,15.873c-0.003-0.008-0.006-0.016-0.011-0.022c-0.044-0.076-0.59-1.094-0.96-1.783
		c-0.001-0.005-0.002-0.009-0.004-0.014c-0.012-0.031-0.04-0.053-0.073-0.057l-2.898-0.36c-0.027-0.003-0.054,0.006-0.073,0.024
		l-1.357,1.291l-0.8-4.631c-0.021-0.124-0.087-0.235-0.186-0.313l-2.318-1.837c-0.01-0.008-0.021-0.013-0.033-0.016
		c-0.013-0.014-0.029-0.026-0.046-0.036L16.33,6.021C16.304,6.007,16.275,6,16.245,6c-0.099,0-0.179,0.08-0.179,0.179V8.15h-0.267
		c0,0,0,0,0,0c-0.067,0-0.132,0.014-0.193,0.041l-1.909,0.849h-1.114c0,0,0,0,0,0c-0.086,0-0.169,0.025-0.241,0.072l-3.916,2.57
		c-0.124,0.081-0.198,0.219-0.198,0.367v4.429l-1.895,1.006c-0.04,0.021-0.073,0.054-0.094,0.094
		c-0.059,0.11-0.016,0.248,0.094,0.307l1.895,1.004v5.452c0,0.242,0.197,0.44,0.44,0.44H11c0.117,0,0.228-0.046,0.311-0.129
		l2.422-2.422c0.012-0.012,0.02-0.027,0.024-0.043l1.687,2.456c0.059,0.087,0.158,0.138,0.263,0.138h3.386c0,0,0,0,0.001,0
		c0.166-0.001,0.302-0.136,0.302-0.303v-0.364h1.142c0,0,0.001,0,0.001,0c0.175,0,0.318-0.142,0.319-0.318V16.71l4.017,0.923
		c0.007,0.002,0.013,0.002,0.02,0.002c0.016,0,0.032-0.005,0.046-0.013c0.017-0.005,0.033-0.014,0.045-0.028l1.635-1.869
		l2.257,0.264c0.008,0.004,0.017,0.006,0.026,0.006c0.012,0,0.026-0.003,0.041-0.01C28.989,15.966,29.01,15.917,28.995,15.873z"/>
	<g>
		<path class="st2" d="M7.33,16.32v2.166c-0.001,0.08-0.066,0.144-0.146,0.144c-0.023,0-0.046-0.006-0.067-0.017l-2.04-1.082
			c-0.071-0.038-0.098-0.125-0.06-0.196c0.014-0.026,0.034-0.046,0.06-0.06l2.04-1.083c0.071-0.038,0.159-0.011,0.196,0.06
			c0.011,0.021,0.017,0.043,0.017,0.067V16.32z"/>
		<path class="st2" d="M20.356,23.891v-7.639l-0.168-0.041l-1.383,0.641v7.282h1.308c0.134,0.001,0.243-0.108,0.244-0.242v0
			C20.356,23.892,20.356,23.891,20.356,23.891z"/>
		<path class="st2" d="M29,15.512c0.009,0.025-1.037-1.924-1.037-1.924l-1.433,1.636L29,15.512z"/>
		<path class="st2" d="M12.871,8.322h-1.203c-0.072,0-0.143,0.021-0.204,0.061l-4.157,2.728c-0.104,0.069-0.167,0.185-0.167,0.31
			v13.05c0,0.205,0.166,0.371,0.371,0.371h0h2.476c0.098,0,0.193-0.039,0.262-0.109l2.572-2.572l-5.156-7.775
			c-0.113-0.171-0.066-0.401,0.104-0.514c0.008-0.005,0.016-0.01,0.024-0.015l3.203-1.789c0.117-0.066,0.19-0.19,0.19-0.324v-1.426
			c0-0.092,0.033-0.181,0.095-0.25L12.871,8.322z"/>
		<path class="st2" d="M18.578,24.842h-3.595c-0.08,0-0.155-0.039-0.2-0.105L7.594,14.273c-0.076-0.111-0.047-0.262,0.063-0.338
			c0.006-0.004,0.012-0.007,0.017-0.011l3.51-1.96v4.612c0,0.134,0.108,0.242,0.242,0.243l7.377,0.032v7.765
			C18.804,24.74,18.702,24.842,18.578,24.842L18.578,24.842L18.578,24.842z"/>
		<path class="st3" d="M19.791,7.248l-4.147-2.225C15.617,5.008,15.586,5,15.554,5c-0.105,0-0.19,0.085-0.19,0.19v2.226
			c0,0.105,0.085,0.19,0.19,0.19h4.148c0.105,0,0.19-0.084,0.191-0.189C19.893,7.346,19.854,7.281,19.791,7.248z"/>
		<polygon class="st2" points="27.966,13.584 24.889,13.202 23.32,14.696 23.389,15.098 24.763,17.245 		"/>
		<path class="st2" d="M24.738,17.256l-1.349-2.158l-0.95-5.496c-0.019-0.108-0.076-0.205-0.162-0.274l-2.461-1.951h-4.735
			c-0.057,0-0.114,0.012-0.166,0.035l-2.045,0.909l5.934,8.53l1.382-0.641L24.738,17.256z"/>
		<path class="st2" d="M11.185,16.576v-6.241c0-0.102,0.038-0.201,0.107-0.277l1.579-1.737l5.934,8.53l-7.377-0.032
			C11.293,16.819,11.185,16.71,11.185,16.576L11.185,16.576L11.185,16.576z"/>
	</g>
</g>
</svg>
