<?xml version="1.0" encoding="utf-8"?>
<!-- Generator: Adobe Illustrator 24.3.0, SVG Export Plug-In . SVG Version: 6.00 Build 0)  -->
<svg version="1.1" xmlns="http://www.w3.org/2000/svg" xmlns:xlink="http://www.w3.org/1999/xlink" x="0px" y="0px"
	 viewBox="0 0 32 32" style="enable-background:new 0 0 32 32;" xml:space="preserve">
<style type="text/css">
	.st0{opacity:0;fill-rule:evenodd;clip-rule:evenodd;fill:#FFFFFF;}
	.st1{fill:#FFFFFF;}
</style>
<g id="trans">
	<rect x="0" y="0" class="st0" width="32" height="32"/>
</g>
<g id="Ebene_1">
	<path d="M0,10h32v10.667H16v1.778H8.889v-1.778H0V10z M1.778,18.889h3.556v-5.333h1.778v5.333h1.778v-7.111H1.778V18.889z
		 M10.667,11.778v8.889h3.556v-1.778h3.556v-7.111H10.667z M14.222,13.556H16v3.556h-1.778V13.556z M19.556,11.778v7.111h3.556
		v-5.333h1.778v5.333h1.778v-5.333h1.778v5.333h1.778v-7.111H19.556z"/>
	<path class="st1" d="M1.778,11.778h7.111v7.111H7.111v-5.333H5.333v5.333H1.778V11.778z M10.667,11.778h7.111v7.111h-3.556v1.778
		h-3.556V11.778z M14.222,17.111H16v-3.556h-1.778V17.111z M19.556,11.778v7.111h3.556v-5.333h1.778v5.333h1.778v-5.333h1.778v5.333
		h1.778v-7.111H19.556z"/>
</g>
</svg>
