<?xml version="1.0" encoding="utf-8"?>
<!-- Generator: Adobe Illustrator 24.3.0, SVG Export Plug-In . SVG Version: 6.00 Build 0)  -->
<svg version="1.1" xmlns="http://www.w3.org/2000/svg" xmlns:xlink="http://www.w3.org/1999/xlink" x="0px" y="0px"
	 viewBox="0 0 32 32" style="enable-background:new 0 0 32 32;" xml:space="preserve">
<style type="text/css">
	.st0{opacity:0;fill-rule:evenodd;clip-rule:evenodd;fill:#FFFFFF;}
	.st1{fill:#FFFFFF;}
</style>
<g id="trans">
	<rect x="0" y="0" class="st0" width="32" height="32"/>
</g>
<g id="Ebene_1">
	<circle cx="16" cy="16" r="16"/>
	<path class="st1" d="M23.996,17.149L23.994,23h-3.312v-5.187c0-1.237-0.022-2.829-1.723-2.829c-1.725,0-1.989,1.348-1.989,2.739V23
		h-3.312V12.334h3.179v1.458h0.045c0.648-1.109,1.854-1.771,3.137-1.723C23.377,12.068,23.996,14.276,23.996,17.149z M9.922,7.032
		C8.86,7.032,8,7.892,8,8.954c0,1.061,0.861,1.922,1.922,1.922c1.061,0,1.922-0.861,1.922-1.922
		C11.844,7.892,10.983,7.031,9.922,7.032z M8.263,23h3.315V12.334H8.263V23z"/>
</g>
</svg>
