<?xml version="1.0" encoding="utf-8"?>
<!-- Generator: Adobe Illustrator 24.3.0, SVG Export Plug-In . SVG Version: 6.00 Build 0)  -->
<svg version="1.1" xmlns="http://www.w3.org/2000/svg" xmlns:xlink="http://www.w3.org/1999/xlink" x="0px" y="0px"
	 viewBox="0 0 32 32" style="enable-background:new 0 0 32 32;" xml:space="preserve">
<style type="text/css">
	.st0{opacity:0;fill-rule:evenodd;clip-rule:evenodd;fill:#FFFFFF;}
	.st1{fill-rule:evenodd;clip-rule:evenodd;fill:#201C19;}
</style>
<g id="trans">
	<rect x="0" y="0" class="st0" width="32" height="32"/>
</g>
<g id="Ebene_1">
	<path class="st1" d="M15.999,0C7.164,0,0,7.163,0,16.001c0,7.068,4.584,13.065,10.943,15.181c0.8,0.147,1.092-0.347,1.092-0.771
		c0-0.38-0.014-1.386-0.022-2.721c-4.451,0.967-5.39-2.145-5.39-2.145c-0.728-1.848-1.776-2.34-1.776-2.34
		c-1.453-0.993,0.11-0.973,0.11-0.973c1.606,0.113,2.451,1.649,2.451,1.649c1.427,2.445,3.745,1.739,4.656,1.329
		c0.145-1.034,0.559-1.739,1.016-2.139c-3.553-0.404-7.288-1.776-7.288-7.908c0-1.747,0.623-3.175,1.647-4.293
		c-0.165-0.405-0.714-2.032,0.157-4.234c0,0,1.343-0.43,4.4,1.64c1.276-0.355,2.645-0.532,4.006-0.539
		c1.359,0.006,2.728,0.184,4.006,0.539c3.055-2.07,4.396-1.64,4.396-1.64c0.873,2.203,0.324,3.83,0.159,4.234
		c1.025,1.118,1.645,2.547,1.645,4.293c0,6.147-3.741,7.499-7.305,7.895c0.575,0.494,1.086,1.47,1.086,2.963
		c0,2.139-0.02,3.865-0.02,4.389c0,0.428,0.288,0.926,1.1,0.769C27.42,29.06,32,23.067,32,16.001C32,7.163,24.836,0,15.999,0z"/>
</g>
</svg>
